<svg xmlns="http://www.w3.org/2000/svg" xml:space="preserve" viewBox="0 0 512 512"><path d="M414.897 512h-70.621c-9.751 0-17.655-7.904-17.655-17.655V70.621c0-9.751 7.904-17.655 17.655-17.655h70.621c9.751 0 17.655 7.904 17.655 17.655v423.724c0 9.751-7.904 17.655-17.655 17.655z" style="fill:#b9785f"/><path d="M344.276 52.966c-9.75 0-17.655 7.904-17.655 17.655v423.724c0 9.75 7.905 17.655 17.655 17.655V52.966z" style="fill:#aa6955"/><path d="m383.774 349.369 21.365-64.095a8.827 8.827 0 0 0 0-5.583l-21.365-64.095c-1.342-4.024-7.033-4.024-8.374 0l-21.365 64.095a8.827 8.827 0 0 0 0 5.583l21.365 64.095c1.34 4.025 7.032 4.025 8.374 0z" style="fill:#ffd782"/><path d="M185.379 512H97.103c-9.751 0-17.655-7.904-17.655-17.655V105.931c0-9.751 7.904-17.655 17.655-17.655h88.276c9.751 0 17.655 7.904 17.655 17.655v388.414c0 9.751-7.904 17.655-17.655 17.655z" style="fill:#9b8273"/><path d="M79.448 105.931v388.414c0 9.75 7.905 17.655 17.655 17.655V88.276c-9.75 0-17.655 7.904-17.655 17.655z" style="fill:#876e64"/><path d="m145.429 367.025 21.365-64.095a8.827 8.827 0 0 0 0-5.583l-21.365-64.095c-1.342-4.024-7.033-4.024-8.374 0l-21.365 64.095a8.827 8.827 0 0 0 0 5.583l21.365 64.095c1.341 4.024 7.032 4.024 8.374 0z" style="fill:#ffd782"/><path d="M308.966 512H220.69c-9.751 0-17.655-7.904-17.655-17.655V17.655C203.034 7.904 210.938 0 220.69 0h88.276c9.751 0 17.655 7.904 17.655 17.655v476.69c0 9.751-7.904 17.655-17.655 17.655z" style="fill:#707487"/><path d="M220.69 512V0c-9.751 0-17.655 7.904-17.655 17.655v476.69c-.001 9.751 7.903 17.655 17.655 17.655z" style="fill:#5b5d6e"/><path d="m269.015 322.887 21.365-64.095a8.827 8.827 0 0 0 0-5.583l-21.365-64.095c-1.342-4.024-7.033-4.024-8.374 0l-21.365 64.095a8.827 8.827 0 0 0 0 5.583l21.365 64.095c1.341 4.024 7.032 4.024 8.374 0zM203.034 35.31H326.62v17.655H203.034zM203.034 70.621H326.62v17.655H203.034zM203.034 423.724H326.62v17.655H203.034zM203.034 459.034H326.62v17.655H203.034zM79.448 441.379h123.586v17.655H79.448zM326.621 441.379h105.931v17.655H326.621zM326.621 105.931h105.931v17.655H326.621zM79.448 141.241h123.586v17.655H79.448z" style="fill:#ffd782"/><path d="M203.034 35.31h17.655v17.655h-17.655zM203.034 70.621h17.655v17.655h-17.655zM79.448 141.241h17.655v17.655H79.448zM79.448 441.379h17.655v17.655H79.448zM326.621 105.931h17.655v17.655h-17.655zM326.621 441.379h17.655v17.655h-17.655zM203.034 423.724h17.655v17.655h-17.655zM203.034 459.034h17.655v17.655h-17.655z" style="fill:#ffc36e"/></svg>